<?xml version="1.0" standalone="no"?>
<!DOCTYPE svg PUBLIC "-//W3C//DTD SVG 20010904//EN"
 "http://www.w3.org/TR/2001/REC-SVG-20010904/DTD/svg10.dtd">
<svg version="1.0" xmlns="http://www.w3.org/2000/svg"
 width="1000.000000pt" height="1000.000000pt" viewBox="0 0 572 1000"
 preserveAspectRatio="xMidYMid meet">
<metadata>
Created by potrace 1.16, written by Peter Selinger 2001-2019
</metadata>
<g transform="translate(-110.0,1082.5) scale(0.25000064,-0.25000064)"
fill="#000000" stroke="none">
<path d="M1495 4011 c-90 -22 -135 -74 -135 -156 0 -73 -18 -217 -40 -321 -63
-305 -268 -905 -456 -1339 -242 -559 -314 -745 -301 -778 3 -9 25 -26 49 -38
37 -19 52 -21 118 -15 41 3 102 12 134 19 l59 12 33 97 c17 53 48 165 68 250
20 84 40 159 45 166 20 33 111 45 346 48 127 1 254 7 284 13 29 6 55 11 57 11
2 0 4 -100 4 -221 0 -137 4 -236 11 -260 18 -58 63 -105 137 -141 l67 -33 160
1 c120 1 186 6 264 22 106 22 185 53 194 76 3 7 -8 34 -25 61 -67 108 -91 202
-133 517 -64 493 -82 562 -243 953 -206 503 -283 707 -331 871 -35 120 -114
174 -276 187 -33 3 -73 2 -90 -2z m147 -1234 c105 -260 128 -353 128 -512 l0
-123 -92 -17 c-70 -13 -117 -15 -187 -10 -102 7 -339 40 -347 47 -11 12 157
432 237 591 69 136 144 234 172 224 5 -1 45 -91 89 -200z"/>
</g>
</svg>
