<?xml version="1.0" standalone="no"?>
<!DOCTYPE svg PUBLIC "-//W3C//DTD SVG 20010904//EN"
 "http://www.w3.org/TR/2001/REC-SVG-20010904/DTD/svg10.dtd">
<svg version="1.0" xmlns="http://www.w3.org/2000/svg"
 width="1000.000000pt" height="1000.000000pt" viewBox="0 0 257 1000"
 preserveAspectRatio="xMidYMid meet">
<metadata>
Created by potrace 1.16, written by Peter Selinger 2001-2019
</metadata>
<g transform="translate(-101.14942528735631,1091.9540229885058) scale(0.22988564597701147,-0.22988564597701147)"
fill="#000000" stroke="none">
<path d="M995 4035 c-5 -2 -82 -11 -170 -20 -136 -13 -168 -19 -215 -43 -38
-18 -58 -35 -64 -54 -10 -27 -2 -40 149 -256 48 -68 64 -112 75 -212 11 -99
-8 -658 -30 -895 -11 -116 -20 -275 -20 -353 0 -78 -7 -210 -16 -294 -10 -91
-14 -206 -12 -283 6 -200 32 -235 195 -255 108 -14 320 2 371 27 49 24 79 72
88 141 9 74 -1 293 -25 557 -30 319 -34 446 -21 585 21 233 80 589 131 787 56
221 63 307 30 393 -29 76 -64 115 -132 149 -60 30 -66 31 -193 30 -72 0 -135
-2 -141 -4z"/>
</g>
</svg>
