<?xml version="1.0" standalone="no"?>
<!DOCTYPE svg PUBLIC "-//W3C//DTD SVG 20010904//EN"
 "http://www.w3.org/TR/2001/REC-SVG-20010904/DTD/svg10.dtd">
<svg version="1.0" xmlns="http://www.w3.org/2000/svg"
 width="1000.000000pt" height="1000.000000pt" viewBox="0 0 775 1000"
 preserveAspectRatio="xMidYMid meet">
<metadata>
Created by potrace 1.16, written by Peter Selinger 2001-2019
</metadata>
<g transform="translate(-101.14942528735631,1091.9540229885058) scale(0.22988564597701147,-0.22988564597701147)"
fill="#000000" stroke="none">
<path d="M1260 4023 c-46 -24 -60 -54 -60 -133 -1 -323 -170 -988 -430 -1690
-126 -338 -230 -664 -230 -717 0 -33 53 -63 110 -62 25 0 76 6 114 12 67 12
69 13 82 50 7 20 29 113 48 206 46 219 74 304 216 661 65 162 148 374 185 470
37 96 70 178 74 183 7 7 107 -337 133 -458 9 -44 13 -185 13 -515 0 -447 0
-456 22 -495 30 -57 79 -100 147 -131 57 -26 61 -26 210 -21 158 5 277 28 340
65 58 34 88 106 111 271 17 116 33 183 107 446 88 313 128 414 296 734 l60
114 10 -34 c5 -19 30 -104 55 -190 53 -179 76 -297 79 -389 1 -36 -2 -222 -7
-415 -7 -309 -6 -357 8 -405 20 -69 69 -127 138 -165 46 -25 68 -30 146 -33
203 -9 493 51 493 103 0 7 -11 33 -25 56 -36 64 -61 147 -89 294 -14 72 -36
183 -50 248 -16 78 -29 182 -36 300 -18 308 -39 387 -195 747 -162 373 -215
502 -250 610 -62 193 -67 204 -105 241 -44 42 -100 59 -197 59 -115 0 -153
-43 -153 -173 0 -76 -28 -213 -95 -462 -36 -134 -84 -350 -110 -490 -57 -313
-68 -353 -165 -601 -44 -111 -87 -234 -98 -275 l-18 -73 -13 82 c-6 46 -38
189 -70 320 -51 204 -60 256 -66 372 -4 74 -11 155 -16 180 -6 25 -58 160
-116 300 -151 364 -197 483 -228 585 -39 131 -63 168 -132 202 -75 36 -189 44
-243 16z"/>
</g>
</svg>
