<?xml version="1.0" standalone="no"?>
<!DOCTYPE svg PUBLIC "-//W3C//DTD SVG 20010904//EN"
 "http://www.w3.org/TR/2001/REC-SVG-20010904/DTD/svg10.dtd">
<svg version="1.0" xmlns="http://www.w3.org/2000/svg"
 width="1000.000000pt" height="1000.000000pt" viewBox="0 0 522 1000"
 preserveAspectRatio="xMidYMid meet">
<metadata>
Created by potrace 1.16, written by Peter Selinger 2001-2019
</metadata>
<g transform="translate(-101.14942528735631,1091.9540229885058) scale(0.22988564597701147,-0.22988564597701147)"
fill="#000000" stroke="none">
<path d="M1360 4025 c-200 -18 -260 -46 -442 -209 -179 -159 -294 -333 -339
-514 -20 -79 -20 -103 -16 -625 4 -579 4 -582 58 -727 48 -130 144 -265 291
-410 148 -146 223 -182 427 -202 94 -9 145 -9 233 1 62 7 160 16 218 21 187
15 292 72 481 260 159 158 235 275 279 432 40 138 38 234 -16 752 -4 33 1 128
12 222 25 227 10 331 -72 499 -148 304 -512 518 -874 514 -58 -1 -166 -7 -240
-14z m-1 -390 c102 -44 152 -60 209 -66 47 -5 96 -18 129 -35 140 -68 277
-271 361 -534 83 -260 81 -388 -10 -805 -38 -174 -63 -229 -133 -294 -82 -74
-144 -95 -280 -95 -144 1 -200 21 -292 107 -119 111 -217 285 -294 519 -69
210 -81 284 -86 556 -7 344 14 522 75 635 53 97 117 100 321 12z"/>
</g>
</svg>
