<?xml version="1.0" standalone="no"?>
<!DOCTYPE svg PUBLIC "-//W3C//DTD SVG 20010904//EN"
 "http://www.w3.org/TR/2001/REC-SVG-20010904/DTD/svg10.dtd">
<svg version="1.0" xmlns="http://www.w3.org/2000/svg"
 width="1000.000000pt" height="1000.000000pt" viewBox="0 0 848 1000"
 preserveAspectRatio="xMidYMid meet">
<metadata>
Created by potrace 1.16, written by Peter Selinger 2001-2019
</metadata>
<g transform="translate(-101.14942528735631,1091.9540229885058) scale(0.22988564597701147,-0.22988564597701147)"
fill="#000000" stroke="none">
<path d="M915 4083 c-207 -25 -329 -55 -366 -89 -16 -15 -15 -19 21 -87 21
-40 48 -106 60 -147 12 -41 30 -102 40 -135 10 -33 48 -126 84 -208 113 -255
123 -311 85 -480 -30 -134 -23 -202 36 -347 147 -360 205 -483 315 -664 96
-160 114 -198 144 -300 33 -113 57 -150 119 -186 58 -33 169 -55 234 -46 55 7
118 39 139 71 9 13 20 57 25 96 7 57 19 90 56 158 110 200 118 224 159 475 67
416 84 515 101 570 l18 60 32 -65 c18 -35 75 -118 128 -184 141 -176 187 -277
316 -700 28 -93 61 -207 73 -252 13 -45 34 -99 48 -120 33 -50 107 -89 195
-104 84 -14 143 -7 198 24 53 30 75 75 75 156 0 311 215 994 568 1801 157 360
242 595 226 621 -4 6 -27 20 -52 31 -38 17 -57 19 -121 13 -42 -3 -100 -12
-130 -19 -65 -15 -62 -9 -121 -254 -39 -158 -200 -661 -254 -792 -76 -183
-214 -466 -244 -501 -45 -52 -70 -66 -79 -42 -3 10 -47 108 -98 218 -154 330
-141 257 -137 765 3 305 1 448 -7 478 -22 79 -101 147 -207 178 -138 40 -570
-16 -646 -83 -17 -15 -17 -18 3 -50 67 -108 99 -216 124 -413 23 -188 23 -189
-37 -360 -126 -356 -249 -616 -332 -704 -38 -41 -62 -46 -72 -13 -3 12 -44
101 -89 197 -45 96 -95 209 -111 250 l-29 75 3 440 c3 309 1 453 -7 483 -21
77 -100 146 -201 176 -50 15 -201 20 -285 9z"/>
</g>
</svg>
