<?xml version="1.0" standalone="no"?>
<!DOCTYPE svg PUBLIC "-//W3C//DTD SVG 20010904//EN"
 "http://www.w3.org/TR/2001/REC-SVG-20010904/DTD/svg10.dtd">
<svg version="1.0" xmlns="http://www.w3.org/2000/svg"
 width="1000.000000pt" height="1000.000000pt" viewBox="0 0 485 1000"
 preserveAspectRatio="xMidYMid meet">
<metadata>
Created by potrace 1.16, written by Peter Selinger 2001-2019
</metadata>
<g transform="translate(-101.14942528735631,1091.9540229885058) scale(0.22988564597701147,-0.22988564597701147)"
fill="#000000" stroke="none">
<path d="M576 4092 c-29 -10 -58 -29 -70 -45 -18 -25 -19 -31 -7 -74 15 -57
25 -69 117 -143 89 -71 245 -152 355 -183 161 -47 258 -58 552 -64 152 -3 277
-9 277 -12 0 -21 -130 -265 -200 -376 -100 -157 -356 -534 -590 -865 -95 -135
-237 -339 -316 -455 -78 -115 -160 -229 -182 -251 -44 -47 -54 -80 -40 -132
11 -38 57 -88 96 -103 37 -14 127 -11 179 7 43 15 73 15 378 -1 241 -13 371
-16 480 -9 165 9 260 10 407 5 94 -4 99 -3 175 33 162 77 313 225 313 306 0
36 -20 61 -63 81 -54 24 -74 24 -187 -5 -52 -13 -153 -34 -225 -46 -112 -19
-149 -21 -265 -15 -74 4 -262 7 -417 6 -186 -2 -283 1 -288 8 -3 6 88 136 203
288 250 331 294 398 492 743 84 146 181 309 217 364 83 127 387 519 476 614
143 153 165 239 72 278 -45 18 -169 18 -231 -1 -39 -12 -154 -16 -584 -21
-465 -6 -552 -4 -668 10 -160 20 -277 41 -333 61 -52 19 -62 18 -123 -3z"/>
</g>
</svg>
