<?xml version="1.0" standalone="no"?>
<!DOCTYPE svg PUBLIC "-//W3C//DTD SVG 20010904//EN"
 "http://www.w3.org/TR/2001/REC-SVG-20010904/DTD/svg10.dtd">
<svg version="1.0" xmlns="http://www.w3.org/2000/svg"
 width="1000.000000pt" height="1000.000000pt" viewBox="0 0 448 1000"
 preserveAspectRatio="xMidYMid meet">
<metadata>
Created by potrace 1.16, written by Peter Selinger 2001-2019
</metadata>
<g transform="translate(-110.0,1082.5) scale(0.25000064,-0.25000064)"
fill="#000000" stroke="none">
<path d="M583 4036 c-39 -18 -59 -47 -72 -107 -10 -45 -8 -51 60 -204 111
-248 159 -411 159 -536 0 -33 -11 -115 -25 -182 -38 -181 -43 -224 -60 -552
-18 -359 -25 -414 -66 -541 -39 -123 -36 -183 16 -292 69 -145 195 -240 332
-249 59 -4 82 0 175 31 59 20 118 36 132 36 29 0 174 50 266 92 49 22 89 53
165 126 55 53 126 118 157 145 64 53 157 185 224 320 125 247 165 516 103 684
-32 87 -105 189 -175 246 -120 97 -284 155 -410 143 -63 -5 -202 -51 -260 -85
-18 -11 -36 -17 -38 -12 -21 33 -57 151 -106 346 -98 390 -132 448 -328 542
-127 61 -194 74 -249 49z m1115 -1206 c44 -47 52 -142 27 -300 -21 -128 -61
-243 -141 -402 -82 -163 -116 -213 -172 -245 -118 -69 -257 38 -292 226 -15
79 -12 238 5 306 17 68 114 273 152 323 57 75 155 110 315 111 75 1 90 -2 106
-19z"/>
</g>
</svg>
