<?xml version="1.0" standalone="no"?>
<!DOCTYPE svg PUBLIC "-//W3C//DTD SVG 20010904//EN"
 "http://www.w3.org/TR/2001/REC-SVG-20010904/DTD/svg10.dtd">
<svg version="1.0" xmlns="http://www.w3.org/2000/svg"
 width="1000.000000pt" height="1000.000000pt" viewBox="0 0 416 1000"
 preserveAspectRatio="xMidYMid meet">
<metadata>
Created by potrace 1.16, written by Peter Selinger 2001-2019
</metadata>
<g transform="translate(-101.14942528735631,1091.9540229885058) scale(0.22988564597701147,-0.22988564597701147)"
fill="#000000" stroke="none">
<path d="M1055 3939 c-54 -14 -143 -23 -275 -29 -229 -11 -266 -18 -262 -46 2
-10 25 -104 52 -209 48 -186 50 -196 69 -475 39 -553 38 -610 -19 -1205 -11
-115 -23 -280 -27 -365 l-6 -155 28 -27 c66 -66 276 -75 372 -16 78 47 104
140 71 248 -18 56 -20 83 -15 200 5 135 53 518 67 533 10 11 164 -152 210
-224 21 -33 64 -126 95 -205 67 -171 111 -242 209 -339 79 -77 292 -242 354
-274 49 -25 155 -57 217 -65 39 -6 70 -2 137 18 106 30 140 47 167 82 27 34
26 45 -3 73 -18 17 -51 27 -136 41 -67 12 -125 27 -145 40 -44 27 -92 101
-148 225 -268 601 -321 713 -377 801 -70 111 -47 168 144 359 112 112 198 180
302 241 16 9 17 15 7 37 -17 36 -55 59 -127 74 -83 17 -181 16 -244 -2 -45
-14 -56 -23 -85 -68 -19 -29 -121 -142 -226 -252 -106 -110 -212 -226 -236
-258 -40 -53 -45 -56 -54 -38 -18 32 -13 114 14 237 14 64 25 134 25 157 0 23
13 121 30 218 23 141 30 221 35 395 6 200 5 222 -12 254 -17 33 -21 35 -73 37
-30 1 -91 -7 -135 -18z"/>
</g>
</svg>
