<?xml version="1.0" standalone="no"?>
<!DOCTYPE svg PUBLIC "-//W3C//DTD SVG 20010904//EN"
 "http://www.w3.org/TR/2001/REC-SVG-20010904/DTD/svg10.dtd">
<svg version="1.0" xmlns="http://www.w3.org/2000/svg"
 width="1000.000000pt" height="1000.000000pt" viewBox="0 0 370 1000"
 preserveAspectRatio="xMidYMid meet">
<metadata>
Created by potrace 1.16, written by Peter Selinger 2001-2019
</metadata>
<g transform="translate(-101.14942528735631,1091.9540229885058) scale(0.22988564597701147,-0.22988564597701147)"
fill="#000000" stroke="none">
<path d="M1495 3384 c-49 -14 -146 -43 -215 -65 -213 -70 -317 -82 -448 -54
-158 33 -203 37 -228 20 -35 -22 -30 -49 27 -166 28 -57 58 -135 66 -174 21
-93 20 -372 -2 -474 -20 -97 -19 -174 6 -360 16 -121 20 -182 15 -271 -9 -159
11 -224 98 -318 66 -71 193 -111 289 -91 101 22 187 80 187 128 0 9 -13 54
-30 99 l-30 83 0 297 c1 444 15 842 32 858 7 7 29 20 49 28 47 20 77 5 106
-53 25 -48 23 -80 -8 -147 -10 -22 -19 -45 -19 -51 0 -24 47 -67 103 -93 253
-120 498 2 548 273 15 81 4 142 -46 246 -65 134 -141 229 -232 285 -56 34
-143 34 -268 0z"/>
</g>
</svg>
