<?xml version="1.0" standalone="no"?>
<!DOCTYPE svg PUBLIC "-//W3C//DTD SVG 20010904//EN"
 "http://www.w3.org/TR/2001/REC-SVG-20010904/DTD/svg10.dtd">
<svg version="1.0" xmlns="http://www.w3.org/2000/svg"
 width="1000.000000pt" height="1000.000000pt" viewBox="0 0 421 1000"
 preserveAspectRatio="xMidYMid meet">
<metadata>
Created by potrace 1.16, written by Peter Selinger 2001-2019
</metadata>
<g transform="translate(-101.14942528735631,1091.9540229885058) scale(0.22988564597701147,-0.22988564597701147)"
fill="#000000" stroke="none">
<path d="M664 3421 c-42 -11 -52 -18 -69 -51 -21 -41 -65 -462 -65 -625 0
-264 30 -908 45 -968 52 -205 352 -416 591 -417 96 0 137 11 325 91 175 74
240 92 277 78 14 -6 50 -32 79 -60 41 -38 59 -49 85 -49 29 0 98 31 98 44 0 3
13 58 29 123 59 236 66 290 63 523 -2 226 4 307 44 560 28 181 30 271 8 378
-51 254 -204 382 -458 382 -87 0 -98 -8 -129 -102 -15 -47 -20 -88 -20 -158 0
-82 5 -112 38 -215 79 -249 77 -233 78 -535 2 -295 -3 -340 -50 -434 -35 -69
-104 -139 -191 -193 -115 -72 -218 -91 -297 -54 -50 23 -78 53 -107 116 -22
49 -23 57 -22 355 1 224 5 338 18 430 21 157 57 310 95 403 43 103 45 120 26
161 -23 47 -152 168 -213 198 -38 19 -65 23 -147 25 -55 1 -114 -2 -131 -6z"/>
</g>
</svg>
