<?xml version="1.0" standalone="no"?>
<!DOCTYPE svg PUBLIC "-//W3C//DTD SVG 20010904//EN"
 "http://www.w3.org/TR/2001/REC-SVG-20010904/DTD/svg10.dtd">
<svg version="1.0" xmlns="http://www.w3.org/2000/svg"
 width="1000.000000pt" height="1000.000000pt" viewBox="0 0 452 1000"
 preserveAspectRatio="xMidYMid meet">
<metadata>
Created by potrace 1.16, written by Peter Selinger 2001-2019
</metadata>
<g transform="translate(-110.0,1082.5) scale(0.25000064,-0.25000064)"
fill="#000000" stroke="none">
<path d="M1745 3414 c-41 -10 -101 -60 -122 -104 -27 -52 -29 -111 -8 -190 20
-74 19 -129 -6 -257 -44 -232 -99 -432 -124 -453 -25 -21 -91 59 -162 195 -64
124 -92 210 -137 419 -29 136 -54 182 -118 220 -88 51 -302 79 -438 56 -62
-10 -80 -18 -107 -45 -56 -56 -48 -77 98 -237 102 -111 129 -156 268 -442 65
-134 133 -265 150 -290 54 -78 100 -186 110 -258 13 -92 -4 -312 -35 -468 -33
-164 -70 -274 -154 -450 -37 -80 -71 -156 -74 -169 -21 -94 268 -421 371 -421
30 0 121 47 132 68 8 15 6 34 -10 78 -33 93 -36 193 -9 299 56 226 232 613
505 1115 130 238 138 261 280 765 77 275 73 335 -36 450 -77 81 -159 118 -269
121 -47 1 -94 0 -105 -2z"/>
</g>
</svg>
